# Rhino
g Default object_1
v 71 0 0
v 71 0 70
v 0 0 70
v 0 0 0
v 71 70 0
v 0 70 70
v 0 70 0
v 71 70 70
v 0 0 70
v 71 0 70
v 71 70 70
v 0 70 70
v 71 0 0
v 0 0 0
v 71 70 0
v 0 70 0
v 71 70 0
v 71 0 0
v 71 70 70
v 71 0 70
v 0 0 0
v 0 70 70
v 0 70 0
v 0 0 70
vn 0 -1 0
vn 0 -1 0
vn 0 -1 0
vn 0 -1 0
vn 0 1 0
vn 0 1 0
vn 0 1 0
vn 0 1 0
vn 0 0 1
vn 0 0 1
vn 0 0 1
vn 0 0 1
vn 0 0 -1
vn 0 0 -1
vn 0 0 -1
vn 0 0 -1
vn 1 0 0
vn 1 0 0
vn 1 0 0
vn 1 0 0
vn -1 0 0
vn -1 0 0
vn -1 0 0
vn -1 0 0
f 1//1 2//2 4//4
f 4//4 2//2 3//3
f 7//7 8//8 5//5
f 6//6 8//8 7//7
f 11//11 9//9 10//10
f 9//9 11//11 12//12
f 14//14 15//15 13//13
f 14//14 16//16 15//15
f 18//18 17//17 19//19
f 18//18 19//19 20//20
f 21//21 22//22 23//23
f 21//21 24//24 22//22
